<svg width="72" height="72" viewBox="0 0 72 72" fill="none" xmlns="http://www.w3.org/2000/svg">
<g filter="url(#filter0_d_134_1)">
<circle cx="36" cy="32" r="32" fill="#F7EBF9"/>
<path d="M45.1429 32.5714C45.1429 32.4502 45.0947 32.3339 45.009 32.2482C44.9233 32.1624 44.807 32.1143 44.6858 32.1143H27.3143C27.1931 32.1143 27.0768 32.1624 26.9911 32.2482C26.9053 32.3339 26.8572 32.4502 26.8572 32.5714V41.2571H45.1429V32.5714ZM36 38.5143C35.5151 38.5143 35.05 38.3216 34.707 37.9787C34.3641 37.6358 34.1715 37.1707 34.1715 36.6857C34.1715 36.2007 34.3641 35.7356 34.707 35.3927C35.05 35.0498 35.5151 34.8571 36 34.8571V35.7714C35.8192 35.7714 35.6424 35.825 35.4921 35.9255C35.3417 36.0259 35.2245 36.1687 35.1553 36.3358C35.0861 36.5029 35.068 36.6867 35.1033 36.8641C35.1386 37.0414 35.2257 37.2043 35.3535 37.3322C35.4814 37.4601 35.6443 37.5471 35.8217 37.5824C35.999 37.6177 36.1829 37.5996 36.3499 37.5304C36.517 37.4612 36.6598 37.344 36.7602 37.1936C36.8607 37.0433 36.9143 36.8665 36.9143 36.6857H37.8286C37.8286 37.1707 37.636 37.6358 37.293 37.9787C36.9501 38.3216 36.485 38.5143 36 38.5143Z" fill="#B84DC5"/>
<path d="M36.1234 22.9532C36.0429 22.9775 35.957 22.9775 35.8766 22.9532L32.1966 21.9017L31.9451 23.8857H40.0548L39.8034 21.9017L36.1234 22.9532Z" fill="#B84DC5"/>
<path d="M25.1109 43.0857C25.0576 42.9391 25.0298 42.7845 25.0286 42.6285V42.1714C25.0293 41.9291 25.1258 41.697 25.2972 41.5257C25.4685 41.3544 25.7006 41.2578 25.9429 41.2571V39.9314C25.6091 39.9997 25.2949 40.1416 25.0231 40.3469C24.7513 40.5523 24.5289 40.8157 24.372 41.1181C24.2151 41.4204 24.1278 41.754 24.1164 42.0944C24.1051 42.4349 24.1699 42.7735 24.3063 43.0857H25.1109Z" fill="#B84DC5"/>
<path d="M23.2 44H48.8V44.9143H23.2V44Z" fill="#B84DC5"/>
<path d="M46.9714 42.1714V42.6285C46.9702 42.7845 46.9424 42.9391 46.8891 43.0857H47.6937C47.8189 42.7971 47.8842 42.486 47.8857 42.1714C47.8844 41.6449 47.7019 41.1348 47.3689 40.7269C47.0359 40.319 46.5727 40.0381 46.0571 39.9314V41.2571C46.2994 41.2578 46.5315 41.3544 46.7028 41.5257C46.8741 41.697 46.9707 41.9291 46.9714 42.1714Z" fill="#B84DC5"/>
<path d="M46.9714 36.2285C46.9706 35.945 46.8824 35.6687 46.7188 35.4371C46.5552 35.2056 46.3241 35.0302 46.0571 34.9348V39.008C46.3738 39.0534 46.682 39.1458 46.9714 39.2822V36.2285Z" fill="#B84DC5"/>
<path d="M25.9429 34.9348C25.6759 35.0302 25.4448 35.2056 25.2812 35.4371C25.1176 35.6687 25.0293 35.945 25.0286 36.2285V39.2822C25.318 39.1458 25.6261 39.0534 25.9429 39.008V34.9348Z" fill="#B84DC5"/>
<path d="M25.9429 42.6285C25.9429 42.7498 25.991 42.866 26.0768 42.9518C26.1625 43.0375 26.2788 43.0857 26.4 43.0857H45.6C45.7213 43.0857 45.8375 43.0375 45.9233 42.9518C46.009 42.866 46.0572 42.7498 46.0572 42.6285V42.1714H25.9429V42.6285Z" fill="#B84DC5"/>
<path d="M33.4263 31.2H38.5691C38.6892 31.1113 38.8023 31.0135 38.9074 30.9075C39.2908 30.5267 39.5948 30.0736 39.802 29.5746C40.0091 29.0755 40.1153 28.5404 40.1143 28V27.0858C40.3568 27.0858 40.5893 26.9894 40.7608 26.818C40.9323 26.6465 41.0286 26.414 41.0286 26.1715C41.0286 25.929 40.9323 25.6964 40.7608 25.525C40.5893 25.3535 40.3568 25.2572 40.1143 25.2572V24.8H31.8857V25.2572C31.6432 25.2572 31.4107 25.3535 31.2392 25.525C31.0678 25.6964 30.9714 25.929 30.9714 26.1715C30.9714 26.414 31.0678 26.6465 31.2392 26.818C31.4107 26.9894 31.6432 27.0858 31.8857 27.0858V28C31.8885 28.6144 32.0282 29.2204 32.2947 29.774C32.5612 30.3276 32.9478 30.8147 33.4263 31.2ZM37.3714 26.6286C37.3714 26.5074 37.4196 26.3911 37.5053 26.3054C37.5911 26.2196 37.7073 26.1715 37.8286 26.1715C37.9498 26.1715 38.0661 26.2196 38.1518 26.3054C38.2376 26.3911 38.2857 26.5074 38.2857 26.6286V27.5429C38.2857 27.6641 38.2376 27.7804 38.1518 27.8662C38.0661 27.9519 37.9498 28 37.8286 28C37.7073 28 37.5911 27.9519 37.5053 27.8662C37.4196 27.7804 37.3714 27.6641 37.3714 27.5429V26.6286ZM33.7143 26.6286C33.7143 26.5074 33.7625 26.3911 33.8482 26.3054C33.9339 26.2196 34.0502 26.1715 34.1714 26.1715C34.2927 26.1715 34.409 26.2196 34.4947 26.3054C34.5804 26.3911 34.6286 26.5074 34.6286 26.6286V27.5429C34.6286 27.6641 34.5804 27.7804 34.4947 27.8662C34.409 27.9519 34.2927 28 34.1714 28C34.0502 28 33.9339 27.9519 33.8482 27.8662C33.7625 27.7804 33.7143 27.6641 33.7143 27.5429V26.6286ZM34.6286 29.3715C34.6286 29.4853 35.115 29.8286 36 29.8286C36.885 29.8286 37.3714 29.4853 37.3714 29.3715H38.2857C38.2857 30.1532 37.3033 30.7429 36 30.7429C34.6967 30.7429 33.7143 30.1532 33.7143 29.3715H34.6286Z" fill="#B84DC5"/>
<path d="M40.5714 20.9143V24.3429H41.4857V20.6857L36 18.4L30.5143 20.6857L36 22.0572L40.5714 20.9143Z" fill="#B84DC5"/>
</g>
<defs>
<filter id="filter0_d_134_1" x="0" y="0" width="72" height="72" filterUnits="userSpaceOnUse" color-interpolation-filters="sRGB">
<feFlood flood-opacity="0" result="BackgroundImageFix"/>
<feColorMatrix in="SourceAlpha" type="matrix" values="0 0 0 0 0 0 0 0 0 0 0 0 0 0 0 0 0 0 127 0" result="hardAlpha"/>
<feOffset dy="4"/>
<feGaussianBlur stdDeviation="2"/>
<feComposite in2="hardAlpha" operator="out"/>
<feColorMatrix type="matrix" values="0 0 0 0 0 0 0 0 0 0 0 0 0 0 0 0 0 0 0.25 0"/>
<feBlend mode="normal" in2="BackgroundImageFix" result="effect1_dropShadow_134_1"/>
<feBlend mode="normal" in="SourceGraphic" in2="effect1_dropShadow_134_1" result="shape"/>
</filter>
</defs>
</svg>
